<svg width="123" height="31" viewBox="0 0 123 31" fill="none" xmlns="http://www.w3.org/2000/svg">
<path fill-rule="evenodd" clip-rule="evenodd" d="M8.5217 10.0531H0V31H5.08312V24.9815H8.5217C12.6479 24.9815 16.535 22.1786 16.535 17.5172C16.535 12.8558 12.6479 10.0531 8.5217 10.0531ZM8.5217 20.261H5.08312V14.7736H8.5217C10.1961 14.7736 11.4519 15.8061 11.4519 17.5172C11.4519 19.2283 10.1961 20.261 8.5217 20.261Z" fill="#eaeaea"/>
<path fill-rule="evenodd" clip-rule="evenodd" d="M37.4634 31H42.726L35.0714 10.0531H29.2707L21.616 31H26.8786L28.3137 27.0761H36.0282L37.4634 31ZM30.0481 22.3557L32.1709 16.5141L34.2939 22.3557H30.0481Z" fill="#eaeaea"/>
<path d="M64.7585 10.0531V22.6508L55.579 10.0531H50.4959V31H55.579V18.4023L64.7585 31H69.8416V10.0531H64.7585Z" fill="#eaeaea"/>
<path d="M86.0939 10.0531H78.23V14.7622L80.0571 13.7082L81.1304 12.5937L83.2772 12.315L81.9355 12.8723L80.8622 13.9869V15.9373L82.2038 16.7732V15.38H83.0089L83.5455 15.9373L84.6189 15.6586V14.5441L88.1073 15.6586L90.254 19.0023L91.5957 19.5596L90.5223 20.1168L90.254 21.2314L91.3274 21.7887L91.059 23.7391L88.8206 25.5693L83.5455 26.5L78.23 29.0077V31H86.0939C92.1338 31 96.4992 26.3975 96.4992 20.5265C96.4992 14.6556 92.1338 10.0531 86.0939 10.0531Z" fill="#eaeaea"/>
<path fill-rule="evenodd" clip-rule="evenodd" d="M117.737 31H123L115.345 10.0531H109.545L101.89 31H107.153L108.588 27.0761H116.302L117.737 31ZM110.322 22.3557L112.445 16.5141L114.568 22.3557H110.322Z" fill="#eaeaea"/>
<path d="M87.3023 20.9527L86.7656 21.51L85.9606 20.6741L85.4239 19.5596L85.6922 17.6091L87.3023 17.0518L88.3756 18.1664L87.3023 19.8382V20.9527Z" fill="#eaeaea"/>
<path d="M2.55845 0.102226H0.0994497V7.36026H2.55845C4.65431 7.36026 6.07575 5.76554 6.07575 3.73125C6.07575 1.69695 4.65431 0.102226 2.55845 0.102226ZM2.55845 6.34823H1.18888V1.11426H2.55845C3.94877 1.11426 4.9967 2.09563 4.9967 3.73125C4.9967 5.36686 3.94877 6.34823 2.55845 6.34823Z" fill="#eaeaea"/>
<path d="M21.6204 7.36026H22.6995V0.102226H21.6204V7.36026Z" fill="#eaeaea"/>
<path d="M41.7119 3.40412V4.41616H44.5133C44.2643 5.62242 43.3201 6.45045 41.9713 6.45045C40.4668 6.45045 39.4085 5.24419 39.4085 3.73125C39.4085 2.2183 40.5291 1.01204 42.0854 1.01204C43.0607 1.01204 43.7351 1.51294 44.1709 2.1263L44.9905 1.50272C44.3265 0.603133 43.372 0 42.0854 0C39.865 0 38.3295 1.69695 38.3295 3.73125C38.3295 5.76554 39.865 7.46249 41.9713 7.46249C44.1709 7.46249 45.665 5.89843 45.665 3.40412H41.7119Z" fill="#eaeaea"/>
<path d="M61.184 7.36026H62.263V0.102226H61.184V7.36026Z" fill="#eaeaea"/>
<path d="M82.3333 0.102226H77.7058V1.11426H79.48V7.36026H80.5591V1.11426H82.3333V0.102226Z" fill="#eaeaea"/>
<path d="M101.878 7.36026H102.998L100.342 0.102226H99.1177L96.4616 7.36026H97.5821L98.2047 5.66331H101.255L101.878 7.36026ZM98.5782 4.65128L99.7299 1.4925L100.892 4.65128H98.5782Z" fill="#eaeaea"/>
<path d="M119.589 6.34823V0.102226H118.51V7.36026H122.598V6.34823H119.589Z" fill="#eaeaea"/>
</svg>
