<svg width="123" height="31" fill="none" xmlns="http://www.w3.org/2000/svg"><path fill-rule="evenodd" clip-rule="evenodd" d="M8.522 10.053H0V31h5.083v-6.018h3.439c4.126 0 8.013-2.803 8.013-7.465 0-4.661-3.887-7.464-8.013-7.464zm0 10.208H5.083v-5.487h3.439c1.674 0 2.93 1.032 2.93 2.743 0 1.711-1.256 2.744-2.93 2.744zM37.463 31h5.263l-7.655-20.947h-5.8L21.616 31h5.263l1.435-3.924h7.714L37.463 31zm-7.415-8.644l2.123-5.842 2.123 5.842h-4.246z" fill="#eaeaea"/><path d="M64.758 10.053v12.598L55.58 10.053h-5.083V31h5.083V18.402L64.759 31h5.083V10.053h-5.084zm21.336 0H78.23v4.71l1.827-1.055 1.073-1.114 2.147-.279-1.341.557-1.074 1.115v1.95l1.342.836V15.38h.805l.537.557 1.073-.278v-1.115l3.488 1.115 2.147 3.343 1.342.558-1.074.557-.268 1.114 1.073.558-.268 1.95-2.238 1.83-5.275.931-5.316 2.508V31h7.864c6.04 0 10.405-4.602 10.405-10.474 0-5.87-4.365-10.473-10.405-10.473z" fill="#eaeaea"/><path fill-rule="evenodd" clip-rule="evenodd" d="M117.737 31H123l-7.655-20.947h-5.8L101.89 31h5.263l1.435-3.924h7.714L117.737 31zm-7.415-8.644l2.123-5.842 2.123 5.842h-4.246z" fill="#eaeaea"/><path d="M87.302 20.953l-.536.557-.805-.836-.537-1.114.268-1.95 1.61-.558 1.074 1.114-1.074 1.672v1.115zM2.558.102H.1V7.36h2.46c2.095 0 3.517-1.594 3.517-3.629 0-2.034-1.422-3.629-3.518-3.629zm0 6.246h-1.37V1.114h1.37c1.39 0 2.439.982 2.439 2.617 0 1.636-1.048 2.617-2.439 2.617zM21.62 7.36h1.08V.102h-1.08V7.36zm20.092-3.956v1.012h2.801c-.249 1.206-1.193 2.034-2.542 2.034-1.504 0-2.563-1.206-2.563-2.719s1.121-2.719 2.677-2.719c.976 0 1.65.5 2.086 1.114l.82-.623C44.326.603 43.371 0 42.084 0c-2.22 0-3.755 1.697-3.755 3.731 0 2.035 1.535 3.731 3.641 3.731 2.2 0 3.694-1.564 3.694-4.058h-3.953zM61.184 7.36h1.079V.102h-1.079V7.36zM82.333.102h-4.627v1.012h1.774V7.36h1.08V1.114h1.773V.102zm19.545 7.258h1.12L100.342.102h-1.224L96.462 7.36h1.12l.623-1.697h3.05l.623 1.697zm-3.3-2.709l1.152-3.159 1.162 3.16h-2.314zm21.011 1.697V.102h-1.079V7.36h4.088V6.348h-3.009z" fill="#eaeaea"/></svg>